<svg viewBox="0 0 500 500" xmlns="http://www.w3.org/2000/svg"><defs><clipPath id="a"><path d="M0 0h500v500H0Z"/></clipPath></defs><g clip-path="url(#a)"><path fill="#FFD138" d="M121.99 0h255.97c67.37 0 121.99 54.61 121.99 121.99v255.97c0 67.37-54.62 121.99-121.99 121.99H121.98C54.6 499.95-.01 445.33-.01 377.96V121.98C-.01 54.6 54.6-.01 121.98-.01Z"/><g fill="#1E1E1E"><path d="M400.44 236.49H298.48c-3.85 0-6.87 3.02-6.87 6.87v5.63c0 23.36-19.1 42.37-42.46 42.33h-5.78c-3.85 0-6.88 3.02-6.88 6.87v101.94h-.02c0 8.11 6.59 14.84 14.84 14.84h148.81c8.1 0 14.84-6.74 14.84-14.99 0-.14-.14-.14-.14-.14v-149c-.14-8.25-6.74-14.982-14.98-14.982l.56.59Zm-29.68 153.94v-.02c-1.24.41-2.48.55-3.72.55 -4.4-.14-8.25-2.75-9.62-6.74l-7.01-18.7c-.55-1.38-1.79-2.34-3.3-2.34h-42.88c-1.52 0-2.75.82-3.3 2.2l-7.01 18.55c-2.48 5.08-8.52 7.42-13.75 4.94 -4.68-2.2-7.15-7.43-5.64-12.38l34.76-92.92c3.29-8.94 13.19-13.49 22.12-10.05 4.53 1.64 8.24 5.36 10.03 10.03l24.04 64.32c.13.41.27.82.41 1.37l10.03 26.94c1.92 5.22-.83 11.27-6.05 13.19 -.14 0-.14 0-.14 0l.96.99Z"/><path d="M311.71 338.34c-.69 1.64.13 3.71 1.92 4.39 .27.13.68.13 1.1.13h22.12c1.78 0 3.43-1.65 3.43-3.44 0-.55-.14-.83-.28-1.24l-11.13-29.57c-.69-1.79-2.75-2.75-4.54-2.07 -.97.27-1.79.96-2.07 1.92l-10.58 29.84Z"/><path d="M192.317 162.26c.68-1.79-.02-3.85-1.67-4.68 -.55-.28-1.1-.42-1.52-.42h-29.12c-1.93 0-3.58 1.51-3.58 3.43 0 .41 0 .96.27 1.37 3.98 8.1 8.93 15.8 14.84 22.81 1.09 1.37 3.29 1.51 4.8.41 .13-.14.27-.28.41-.55 5.9-7.01 10.85-14.71 14.84-22.96l.68.55Z"/><path d="M249.2 263.98c8.1 0 14.84-6.74 14.84-14.99 0-.14-.14-.14-.14-.14v-149c-.14-8.25-6.74-14.99-14.98-14.86H99.97c-8.25-.27-14.98 6.47-14.98 14.72v148.85c-.14 8.11 6.59 14.84 14.84 14.84l149.36.54Zm-16.49-31.62c-1.24 4.39-5.36 7.56-10.04 7.56 -.97 0-1.93-.14-2.75-.42 -15.67-4.4-30.37-11.69-43.29-21.45 -1.24-.97-3.03-.97-4.13 0 -13.06 9.75-27.76 17.04-43.3 21.3 -.97.13-1.93.27-2.75.27 -5.78 0-10.45-4.54-10.45-10.31 -.14-4.82 3.02-8.94 7.55-10.18h-.13c11.54-3.17 22.53-8.39 32.42-15.12 .68-.69 1.23-1.52 1.51-2.48 .13-1.1-.28-2.07-.83-2.75v-.14c-10.03-11.83-17.863-25.3-23.23-39.7 -.55-1.38-1.79-2.34-3.17-2.34h-10.58c-5.78 0-10.31-4.68-10.31-10.31 0-5.78 4.53-10.31 10.3-10.31h40.67c1.78 0 3.43-1.65 3.43-3.44v-13.75c0-5.78 4.53-10.31 10.3-10.31 5.63 0 10.3 4.53 10.3 10.3v13.74c0 1.78 1.51 3.43 3.43 3.43h41.22c5.63 0 10.3 4.53 10.3 10.3 0 5.63-4.68 10.3-10.31 10.3h-11c-1.52-.14-2.75.82-3.3 2.19v.11c-5.36 14.43-13.2 27.9-23.23 39.58 -1.24 1.37-1.1 3.57.27 4.81 0 0 .13.13.27.13v-.02c9.89 6.73 20.74 11.95 32.42 15.12 5.35 1.37 8.65 7.01 7.28 12.5 -.14 0-.14 0-.14 0l1.09 1.25Z"/><path d="M328.02 158.832v-.14c2.61 2.61 7 2.61 9.61 0 1.23-1.375 1.92-3.17 1.92-4.95v-4.27c-.14-1.93 1.51-3.58 3.29-3.58 .55-.14 1.09 0 1.51.27 17.86 9.48 29.26 28.04 29.26 48.52 0 7.56 6.04 13.74 13.74 13.74 7.55 0 13.74-6.19 13.74-13.75 -.14-36.7-24.33-68.863-59.36-79.18 -1.52-.55-2.48-1.79-2.48-3.3V98.3c-.14-2.89-1.79-5.37-4.26-6.47 -2.62-1.1-5.64-.55-7.56 1.37l-27.49 27.48c-2.75 2.61-2.75 7.01 0 9.62l28.03 28.45Z"/><path d="M113.03 277.72c-7.56-.14-13.75 6.04-13.75 13.6 0 36.56 24.18 68.726 59.36 79.03 1.37.41 2.47 1.64 2.47 3.29v13.74c-.14 3.71 3.02 6.87 6.73 6.87 1.78 0 3.57-.83 4.8-2.07l27.48-27.49c2.61-2.75 2.61-7.15 0-9.76l-27.49-27.49c-2.75-2.75-7.15-2.75-9.76-.14 -1.38 1.23-2.07 3.02-2.07 4.81v4.26c-.14 1.1-.69 2.19-1.79 2.88 -1.1.54-2.34.54-3.44 0 -18.01-9.63-29.41-28.18-29.41-48.66 0-7.7-6.19-13.75-13.74-13.75l.54.82Z"/></g></g></svg>