<svg viewBox="0 0 500 500" xmlns="http://www.w3.org/2000/svg"><g><path d="M477.952 229.53h-154.48c-5.83 0-10.41 4.58-10.41 10.41v8.53c0 35.4-28.94 64.2-64.34 64.14h-8.75c-5.83 0-10.41 4.58-10.41 10.41v154.46h-.03c0 12.28 9.99 22.49 22.48 22.49h225.47c12.28 0 22.48-10.21 22.48-22.7 0-.21-.21-.21-.21-.21V251.3c-.21-12.5-10.21-22.7-22.7-22.7l.85.89Zm-44.97 233.25v-.03c-1.88.625-3.75.83-5.63.83 -6.67-.21-12.5-4.17-14.58-10.21l-10.62-28.33c-.84-2.09-2.71-3.54-5-3.54h-64.96c-2.29 0-4.17 1.24-5 3.33l-10.62 28.11c-3.75 7.7-12.91 11.24-20.82 7.49 -7.08-3.34-10.83-11.25-8.54-18.75l52.67-140.79c4.99-13.54 19.98-20.43 33.51-15.23 6.87 2.49 12.49 8.12 15.19 15.2l36.43 97.46c.2.625.41 1.25.625 2.08l15.19 40.81c2.91 7.91-1.25 17.07-9.17 19.99 -.21 0-.21 0-.21 0l1.45 1.49Z"/><path d="M343.501 383.85c-1.05 2.49.2 5.62 2.91 6.66 .41.2 1.04.2 1.66.2h33.51c2.7 0 5.2-2.5 5.2-5.21 0-.84-.21-1.25-.42-1.88l-16.87-44.8c-1.05-2.71-4.17-4.17-6.87-3.13 -1.46.41-2.71 1.45-3.13 2.91l-16.04 45.21Z"/><path d="M162.602 117.074c1.04-2.71-.03-5.84-2.52-7.09 -.84-.42-1.67-.63-2.29-.63h-44.12c-2.92 0-5.42 2.29-5.42 5.2 0 .62 0 1.45.41 2.08 6.03 12.28 13.53 23.95 22.485 34.57 1.66 2.08 4.99 2.29 7.28.625 .2-.21.41-.42.62-.84 8.95-10.63 16.44-22.29 22.48-34.78l1.04.83Z"/><path d="M248.79 271.18c12.28 0 22.48-10.21 22.48-22.71 0-.21-.21-.21-.21-.21V22.5C270.85 10 260.85-.21 248.36-.02H22.67c-12.5-.4-22.7 9.8-22.7 22.3v225.54c-.21 12.28 9.99 22.49 22.48 22.49l226.3.83Zm-24.99-47.9c-1.88 6.66-8.12 11.45-15.2 11.45 -1.46 0-2.92-.21-4.17-.625 -23.74-6.67-46.02-17.71-65.59-32.49 -1.88-1.46-4.58-1.46-6.25 0 -19.78 14.78-42.06 25.82-65.61 32.28 -1.46.2-2.92.41-4.17.41 -8.75 0-15.83-6.88-15.83-15.62 -.21-7.29 4.58-13.54 11.45-15.42h-.19c17.48-4.79 34.14-12.71 49.13-22.91 1.04-1.05 1.87-2.3 2.29-3.75 .2-1.67-.42-3.13-1.25-4.17v-.21c-15.2-17.91-27.07-38.32-35.19-60.15 -.84-2.09-2.71-3.54-4.79-3.54H52.39c-8.75 0-15.62-7.09-15.62-15.62 0-8.75 6.87-15.62 15.61-15.62H114c2.7 0 5.2-2.5 5.2-5.21V51.25c0-8.75 6.87-15.62 15.61-15.62 8.53 0 15.61 6.87 15.61 15.61v20.82c0 2.7 2.29 5.2 5.2 5.2h62.458c8.53 0 15.61 6.87 15.61 15.61 0 8.53-7.08 15.61-15.62 15.61h-16.66c-2.29-.21-4.17 1.24-5 3.33v.16c-8.12 21.86-19.99 42.27-35.185 59.97 -1.88 2.08-1.67 5.41.41 7.28 0 0 .2.2.41.2v-.02c14.99 10.2 31.43 18.11 49.13 22.9 8.12 2.08 13.11 10.62 11.03 18.95 -.21 0-.21 0-.21 0l1.66 1.89Z"/><path d="M368.21 111.867v-.21c3.95 3.95 10.61 3.95 14.57 0 1.87-2.09 2.91-4.79 2.91-7.497V97.7c-.21-2.92 2.29-5.42 4.99-5.42 .83-.21 1.66 0 2.29.41 27.06 14.36 44.34 42.48 44.34 73.51 0 11.45 9.16 20.82 20.81 20.82 11.45 0 20.81-9.38 20.81-20.83 -.21-55.61-36.85-104.34-89.94-119.96 -2.29-.84-3.75-2.71-3.75-5V20.19c-.21-4.38-2.71-8.13-6.46-9.79 -3.96-1.67-8.54-.84-11.46 2.08l-41.64 41.65c-4.17 3.95-4.17 10.62 0 14.57l42.47 43.1Z"/><path d="M42.47 292.01c-11.46-.21-20.82 9.16-20.82 20.61 0 55.39 36.642 104.13 89.93 119.74 2.08.625 3.74 2.49 3.74 4.99v20.82c-.21 5.62 4.58 10.41 10.2 10.41 2.7 0 5.41-1.25 7.28-3.13l41.63-41.66c3.95-4.17 3.95-10.83 0-14.79l-41.64-41.66c-4.17-4.17-10.83-4.17-14.79-.21 -2.09 1.87-3.13 4.58-3.13 7.28v6.45c-.21 1.66-1.05 3.33-2.71 4.37 -1.67.83-3.54.83-5.21 0 -27.28-14.58-44.56-42.7-44.56-73.73 0-11.67-9.37-20.83-20.82-20.83l.83 1.24Z"/></g></svg>
